<svg width="108" height="96" viewBox="0 0 108 96" fill="none" xmlns="http://www.w3.org/2000/svg">
<circle cx="2.28553" cy="2.28553" r="2.28553" fill="#6A8BFF"/>
<circle cx="2.28553" cy="54.1758" r="2.28553" fill="#6A8BFF"/>
<circle cx="2.28553" cy="15.2581" r="2.28553" fill="#6A8BFF"/>
<circle cx="2.28553" cy="67.1484" r="2.28553" fill="#6A8BFF"/>
<circle cx="2.28553" cy="28.2307" r="2.28553" fill="#6A8BFF"/>
<circle cx="2.28553" cy="80.121" r="2.28553" fill="#6A8BFF"/>
<circle cx="2.28553" cy="41.2033" r="2.28553" fill="#6A8BFF"/>
<circle cx="2.28553" cy="93.0935" r="2.28553" fill="#6A8BFF"/>
<circle cx="15.2581" cy="2.28553" r="2.28553" fill="#6A8BFF"/>
<circle cx="15.2581" cy="54.1758" r="2.28553" fill="#6A8BFF"/>
<circle cx="15.2581" cy="15.2581" r="2.28553" fill="#6A8BFF"/>
<circle cx="15.2581" cy="67.1484" r="2.28553" fill="#6A8BFF"/>
<circle cx="15.2581" cy="28.2307" r="2.28553" fill="#6A8BFF"/>
<circle cx="15.2581" cy="80.121" r="2.28553" fill="#6A8BFF"/>
<circle cx="15.2581" cy="41.2033" r="2.28553" fill="#6A8BFF"/>
<circle cx="15.2581" cy="93.0935" r="2.28553" fill="#6A8BFF"/>
<circle cx="28.2307" cy="2.28553" r="2.28553" fill="#6A8BFF"/>
<circle cx="28.2307" cy="54.1758" r="2.28553" fill="#6A8BFF"/>
<circle cx="28.2307" cy="15.2581" r="2.28553" fill="#6A8BFF"/>
<circle cx="28.2307" cy="67.1484" r="2.28553" fill="#6A8BFF"/>
<circle cx="28.2307" cy="28.2307" r="2.28553" fill="#6A8BFF"/>
<circle cx="28.2307" cy="80.121" r="2.28553" fill="#6A8BFF"/>
<circle cx="28.2307" cy="41.2033" r="2.28553" fill="#6A8BFF"/>
<circle cx="28.2307" cy="93.0935" r="2.28553" fill="#6A8BFF"/>
<circle cx="41.2031" cy="2.28553" r="2.28553" fill="#6A8BFF"/>
<circle cx="41.2031" cy="54.1758" r="2.28553" fill="#6A8BFF"/>
<circle cx="80.1208" cy="2.28553" r="2.28553" fill="#6A8BFF"/>
<circle cx="80.1208" cy="54.1758" r="2.28553" fill="#6A8BFF"/>
<circle cx="41.2031" cy="15.2581" r="2.28553" fill="#6A8BFF"/>
<circle cx="41.2031" cy="67.1484" r="2.28553" fill="#6A8BFF"/>
<circle cx="80.1208" cy="15.2581" r="2.28553" fill="#6A8BFF"/>
<circle cx="80.1208" cy="67.1484" r="2.28553" fill="#6A8BFF"/>
<circle cx="41.2031" cy="28.2307" r="2.28553" fill="#6A8BFF"/>
<circle cx="41.2031" cy="80.121" r="2.28553" fill="#6A8BFF"/>
<circle cx="80.1208" cy="28.2307" r="2.28553" fill="#6A8BFF"/>
<circle cx="80.1208" cy="80.121" r="2.28553" fill="#6A8BFF"/>
<circle cx="41.2031" cy="41.2033" r="2.28553" fill="#6A8BFF"/>
<circle cx="41.2031" cy="93.0935" r="2.28553" fill="#6A8BFF"/>
<circle cx="80.1208" cy="41.2033" r="2.28553" fill="#6A8BFF"/>
<circle cx="80.1208" cy="93.0935" r="2.28553" fill="#6A8BFF"/>
<circle cx="54.1758" cy="2.28553" r="2.28553" fill="#6A8BFF"/>
<circle cx="54.1758" cy="54.1758" r="2.28553" fill="#6A8BFF"/>
<circle cx="93.0935" cy="2.28553" r="2.28553" fill="#6A8BFF"/>
<circle cx="93.0935" cy="54.1758" r="2.28553" fill="#6A8BFF"/>
<circle cx="54.1758" cy="15.2581" r="2.28553" fill="#6A8BFF"/>
<circle cx="54.1758" cy="67.1484" r="2.28553" fill="#6A8BFF"/>
<circle cx="93.0935" cy="15.2581" r="2.28553" fill="#6A8BFF"/>
<circle cx="93.0935" cy="67.1484" r="2.28553" fill="#6A8BFF"/>
<circle cx="54.1758" cy="28.2307" r="2.28553" fill="#6A8BFF"/>
<circle cx="54.1758" cy="80.121" r="2.28553" fill="#6A8BFF"/>
<circle cx="93.0935" cy="28.2307" r="2.28553" fill="#6A8BFF"/>
<circle cx="93.0935" cy="80.121" r="2.28553" fill="#6A8BFF"/>
<circle cx="54.1758" cy="41.2033" r="2.28553" fill="#6A8BFF"/>
<circle cx="54.1758" cy="93.0935" r="2.28553" fill="#6A8BFF"/>
<circle cx="93.0935" cy="41.2033" r="2.28553" fill="#6A8BFF"/>
<circle cx="93.0935" cy="93.0935" r="2.28553" fill="#6A8BFF"/>
<circle cx="67.1484" cy="2.28553" r="2.28553" fill="#6A8BFF"/>
<circle cx="67.1484" cy="54.1758" r="2.28553" fill="#6A8BFF"/>
<ellipse cx="105.89" cy="2.28553" rx="2.10972" ry="2.28553" fill="#6A8BFF"/>
<ellipse cx="105.89" cy="54.1758" rx="2.10972" ry="2.28553" fill="#6A8BFF"/>
<circle cx="67.1484" cy="15.2581" r="2.28553" fill="#6A8BFF"/>
<circle cx="67.1484" cy="67.1484" r="2.28553" fill="#6A8BFF"/>
<ellipse cx="105.89" cy="15.2581" rx="2.10972" ry="2.28553" fill="#6A8BFF"/>
<ellipse cx="105.89" cy="67.1484" rx="2.10972" ry="2.28553" fill="#6A8BFF"/>
<circle cx="67.1484" cy="28.2307" r="2.28553" fill="#6A8BFF"/>
<circle cx="67.1484" cy="80.121" r="2.28553" fill="#6A8BFF"/>
<ellipse cx="105.89" cy="28.2307" rx="2.10972" ry="2.28553" fill="#6A8BFF"/>
<ellipse cx="105.89" cy="80.121" rx="2.10972" ry="2.28553" fill="#6A8BFF"/>
<circle cx="67.1484" cy="41.2033" r="2.28553" fill="#6A8BFF"/>
<circle cx="67.1484" cy="93.0935" r="2.28553" fill="#6A8BFF"/>
<ellipse cx="105.89" cy="41.2033" rx="2.10972" ry="2.28553" fill="#6A8BFF"/>
<ellipse cx="105.89" cy="93.0935" rx="2.10972" ry="2.28553" fill="#6A8BFF"/>
</svg>
