<svg xmlns="http://www.w3.org/2000/svg" width="108" height="96" fill="none" viewBox="0 0 108 96"><circle cx="2.286" cy="2.286" r="2.286" fill="#6A8BFF"/><circle cx="2.286" cy="54.176" r="2.286" fill="#6A8BFF"/><circle cx="2.286" cy="15.258" r="2.286" fill="#6A8BFF"/><circle cx="2.286" cy="67.148" r="2.286" fill="#6A8BFF"/><circle cx="2.286" cy="28.231" r="2.286" fill="#6A8BFF"/><circle cx="2.286" cy="80.121" r="2.286" fill="#6A8BFF"/><circle cx="2.286" cy="41.203" r="2.286" fill="#6A8BFF"/><circle cx="2.286" cy="93.094" r="2.286" fill="#6A8BFF"/><circle cx="15.258" cy="2.286" r="2.286" fill="#6A8BFF"/><circle cx="15.258" cy="54.176" r="2.286" fill="#6A8BFF"/><circle cx="15.258" cy="15.258" r="2.286" fill="#6A8BFF"/><circle cx="15.258" cy="67.148" r="2.286" fill="#6A8BFF"/><circle cx="15.258" cy="28.231" r="2.286" fill="#6A8BFF"/><circle cx="15.258" cy="80.121" r="2.286" fill="#6A8BFF"/><circle cx="15.258" cy="41.203" r="2.286" fill="#6A8BFF"/><circle cx="15.258" cy="93.094" r="2.286" fill="#6A8BFF"/><circle cx="28.231" cy="2.286" r="2.286" fill="#6A8BFF"/><circle cx="28.231" cy="54.176" r="2.286" fill="#6A8BFF"/><circle cx="28.231" cy="15.258" r="2.286" fill="#6A8BFF"/><circle cx="28.231" cy="67.148" r="2.286" fill="#6A8BFF"/><circle cx="28.231" cy="28.231" r="2.286" fill="#6A8BFF"/><circle cx="28.231" cy="80.121" r="2.286" fill="#6A8BFF"/><circle cx="28.231" cy="41.203" r="2.286" fill="#6A8BFF"/><circle cx="28.231" cy="93.094" r="2.286" fill="#6A8BFF"/><circle cx="41.203" cy="2.286" r="2.286" fill="#6A8BFF"/><circle cx="41.203" cy="54.176" r="2.286" fill="#6A8BFF"/><circle cx="80.121" cy="2.286" r="2.286" fill="#6A8BFF"/><circle cx="80.121" cy="54.176" r="2.286" fill="#6A8BFF"/><circle cx="41.203" cy="15.258" r="2.286" fill="#6A8BFF"/><circle cx="41.203" cy="67.148" r="2.286" fill="#6A8BFF"/><circle cx="80.121" cy="15.258" r="2.286" fill="#6A8BFF"/><circle cx="80.121" cy="67.148" r="2.286" fill="#6A8BFF"/><circle cx="41.203" cy="28.231" r="2.286" fill="#6A8BFF"/><circle cx="41.203" cy="80.121" r="2.286" fill="#6A8BFF"/><circle cx="80.121" cy="28.231" r="2.286" fill="#6A8BFF"/><circle cx="80.121" cy="80.121" r="2.286" fill="#6A8BFF"/><circle cx="41.203" cy="41.203" r="2.286" fill="#6A8BFF"/><circle cx="41.203" cy="93.094" r="2.286" fill="#6A8BFF"/><circle cx="80.121" cy="41.203" r="2.286" fill="#6A8BFF"/><circle cx="80.121" cy="93.094" r="2.286" fill="#6A8BFF"/><circle cx="54.176" cy="2.286" r="2.286" fill="#6A8BFF"/><circle cx="54.176" cy="54.176" r="2.286" fill="#6A8BFF"/><circle cx="93.094" cy="2.286" r="2.286" fill="#6A8BFF"/><circle cx="93.094" cy="54.176" r="2.286" fill="#6A8BFF"/><circle cx="54.176" cy="15.258" r="2.286" fill="#6A8BFF"/><circle cx="54.176" cy="67.148" r="2.286" fill="#6A8BFF"/><circle cx="93.094" cy="15.258" r="2.286" fill="#6A8BFF"/><circle cx="93.094" cy="67.148" r="2.286" fill="#6A8BFF"/><circle cx="54.176" cy="28.231" r="2.286" fill="#6A8BFF"/><circle cx="54.176" cy="80.121" r="2.286" fill="#6A8BFF"/><circle cx="93.094" cy="28.231" r="2.286" fill="#6A8BFF"/><circle cx="93.094" cy="80.121" r="2.286" fill="#6A8BFF"/><circle cx="54.176" cy="41.203" r="2.286" fill="#6A8BFF"/><circle cx="54.176" cy="93.094" r="2.286" fill="#6A8BFF"/><circle cx="93.094" cy="41.203" r="2.286" fill="#6A8BFF"/><circle cx="93.094" cy="93.094" r="2.286" fill="#6A8BFF"/><circle cx="67.148" cy="2.286" r="2.286" fill="#6A8BFF"/><circle cx="67.148" cy="54.176" r="2.286" fill="#6A8BFF"/><ellipse cx="105.89" cy="2.286" fill="#6A8BFF" rx="2.11" ry="2.286"/><ellipse cx="105.89" cy="54.176" fill="#6A8BFF" rx="2.11" ry="2.286"/><circle cx="67.148" cy="15.258" r="2.286" fill="#6A8BFF"/><circle cx="67.148" cy="67.148" r="2.286" fill="#6A8BFF"/><ellipse cx="105.89" cy="15.258" fill="#6A8BFF" rx="2.11" ry="2.286"/><ellipse cx="105.89" cy="67.148" fill="#6A8BFF" rx="2.11" ry="2.286"/><circle cx="67.148" cy="28.231" r="2.286" fill="#6A8BFF"/><circle cx="67.148" cy="80.121" r="2.286" fill="#6A8BFF"/><ellipse cx="105.89" cy="28.231" fill="#6A8BFF" rx="2.11" ry="2.286"/><ellipse cx="105.89" cy="80.121" fill="#6A8BFF" rx="2.11" ry="2.286"/><circle cx="67.148" cy="41.203" r="2.286" fill="#6A8BFF"/><circle cx="67.148" cy="93.094" r="2.286" fill="#6A8BFF"/><ellipse cx="105.89" cy="41.203" fill="#6A8BFF" rx="2.11" ry="2.286"/><ellipse cx="105.89" cy="93.094" fill="#6A8BFF" rx="2.11" ry="2.286"/></svg>