<svg xmlns="http://www.w3.org/2000/svg" width="99" height="96" fill="none" viewBox="0 0 99 96"><circle cx="6.258" cy="2.286" r="2.286" fill="#FB8277"/><circle cx="6.258" cy="54.176" r="2.286" fill="#FB8277"/><circle cx="6.258" cy="15.258" r="2.286" fill="#FB8277"/><circle cx="6.258" cy="67.148" r="2.286" fill="#FB8277"/><circle cx="6.258" cy="28.231" r="2.286" fill="#FB8277"/><circle cx="6.258" cy="80.121" r="2.286" fill="#FB8277"/><circle cx="6.258" cy="41.203" r="2.286" fill="#FB8277"/><circle cx="6.258" cy="93.094" r="2.286" fill="#FB8277"/><circle cx="19.231" cy="2.286" r="2.286" fill="#FB8277"/><circle cx="19.231" cy="54.176" r="2.286" fill="#FB8277"/><circle cx="19.231" cy="15.258" r="2.286" fill="#FB8277"/><circle cx="19.231" cy="67.148" r="2.286" fill="#FB8277"/><circle cx="19.231" cy="28.231" r="2.286" fill="#FB8277"/><circle cx="19.231" cy="80.121" r="2.286" fill="#FB8277"/><circle cx="19.231" cy="41.203" r="2.286" fill="#FB8277"/><circle cx="19.231" cy="93.094" r="2.286" fill="#FB8277"/><circle cx="32.203" cy="2.286" r="2.286" fill="#FB8277"/><circle cx="32.203" cy="54.176" r="2.286" fill="#FB8277"/><circle cx="71.121" cy="2.286" r="2.286" fill="#FB8277"/><circle cx="71.121" cy="54.176" r="2.286" fill="#FB8277"/><circle cx="32.203" cy="15.258" r="2.286" fill="#FB8277"/><circle cx="32.203" cy="67.148" r="2.286" fill="#FB8277"/><circle cx="71.121" cy="15.258" r="2.286" fill="#FB8277"/><circle cx="71.121" cy="67.148" r="2.286" fill="#FB8277"/><circle cx="32.203" cy="28.231" r="2.286" fill="#FB8277"/><circle cx="32.203" cy="80.121" r="2.286" fill="#FB8277"/><circle cx="71.121" cy="28.231" r="2.286" fill="#FB8277"/><circle cx="71.121" cy="80.121" r="2.286" fill="#FB8277"/><circle cx="32.203" cy="41.203" r="2.286" fill="#FB8277"/><circle cx="32.203" cy="93.094" r="2.286" fill="#FB8277"/><circle cx="71.121" cy="41.203" r="2.286" fill="#FB8277"/><circle cx="71.121" cy="93.094" r="2.286" fill="#FB8277"/><circle cx="45.176" cy="2.286" r="2.286" fill="#FB8277"/><circle cx="45.176" cy="54.176" r="2.286" fill="#FB8277"/><circle cx="84.094" cy="2.286" r="2.286" fill="#FB8277"/><circle cx="84.094" cy="54.176" r="2.286" fill="#FB8277"/><circle cx="45.176" cy="15.258" r="2.286" fill="#FB8277"/><circle cx="45.176" cy="67.148" r="2.286" fill="#FB8277"/><circle cx="84.094" cy="15.258" r="2.286" fill="#FB8277"/><circle cx="84.094" cy="67.148" r="2.286" fill="#FB8277"/><circle cx="45.176" cy="28.231" r="2.286" fill="#FB8277"/><circle cx="45.176" cy="80.121" r="2.286" fill="#FB8277"/><circle cx="84.094" cy="28.231" r="2.286" fill="#FB8277"/><circle cx="84.094" cy="80.121" r="2.286" fill="#FB8277"/><circle cx="45.176" cy="41.203" r="2.286" fill="#FB8277"/><circle cx="45.176" cy="93.094" r="2.286" fill="#FB8277"/><circle cx="84.094" cy="41.203" r="2.286" fill="#FB8277"/><circle cx="84.094" cy="93.094" r="2.286" fill="#FB8277"/><circle cx="58.148" cy="2.286" r="2.286" fill="#FB8277"/><circle cx="58.148" cy="54.176" r="2.286" fill="#FB8277"/><ellipse cx="96.89" cy="2.286" fill="#FB8277" rx="2.11" ry="2.286"/><ellipse cx="96.89" cy="54.176" fill="#FB8277" rx="2.11" ry="2.286"/><circle cx="58.148" cy="15.258" r="2.286" fill="#FB8277"/><circle cx="58.148" cy="67.148" r="2.286" fill="#FB8277"/><ellipse cx="96.89" cy="15.258" fill="#FB8277" rx="2.11" ry="2.286"/><ellipse cx="96.89" cy="67.148" fill="#FB8277" rx="2.11" ry="2.286"/><circle cx="58.148" cy="28.231" r="2.286" fill="#FB8277"/><circle cx="58.148" cy="80.121" r="2.286" fill="#FB8277"/><ellipse cx="96.89" cy="28.231" fill="#FB8277" rx="2.11" ry="2.286"/><ellipse cx="96.89" cy="80.121" fill="#FB8277" rx="2.11" ry="2.286"/><circle cx="58.148" cy="41.203" r="2.286" fill="#FB8277"/><circle cx="58.148" cy="93.094" r="2.286" fill="#FB8277"/><ellipse cx="96.89" cy="41.203" fill="#FB8277" rx="2.11" ry="2.286"/><ellipse cx="96.89" cy="93.094" fill="#FB8277" rx="2.11" ry="2.286"/></svg>