<svg width="99" height="96" viewBox="0 0 99 96" fill="none" xmlns="http://www.w3.org/2000/svg">
<circle cx="6.25806" cy="2.28553" r="2.28553" fill="#FB8277"/>
<circle cx="6.25806" cy="54.1758" r="2.28553" fill="#FB8277"/>
<circle cx="6.25806" cy="15.2581" r="2.28553" fill="#FB8277"/>
<circle cx="6.25806" cy="67.1484" r="2.28553" fill="#FB8277"/>
<circle cx="6.25806" cy="28.2307" r="2.28553" fill="#FB8277"/>
<circle cx="6.25806" cy="80.121" r="2.28553" fill="#FB8277"/>
<circle cx="6.25806" cy="41.2033" r="2.28553" fill="#FB8277"/>
<circle cx="6.25806" cy="93.0936" r="2.28553" fill="#FB8277"/>
<circle cx="19.2307" cy="2.28553" r="2.28553" fill="#FB8277"/>
<circle cx="19.2307" cy="54.1758" r="2.28553" fill="#FB8277"/>
<circle cx="19.2307" cy="15.2581" r="2.28553" fill="#FB8277"/>
<circle cx="19.2307" cy="67.1484" r="2.28553" fill="#FB8277"/>
<circle cx="19.2307" cy="28.2307" r="2.28553" fill="#FB8277"/>
<circle cx="19.2307" cy="80.121" r="2.28553" fill="#FB8277"/>
<circle cx="19.2307" cy="41.2033" r="2.28553" fill="#FB8277"/>
<circle cx="19.2307" cy="93.0936" r="2.28553" fill="#FB8277"/>
<circle cx="32.2031" cy="2.28553" r="2.28553" fill="#FB8277"/>
<circle cx="32.2031" cy="54.1758" r="2.28553" fill="#FB8277"/>
<circle cx="71.1208" cy="2.28553" r="2.28553" fill="#FB8277"/>
<circle cx="71.1208" cy="54.1758" r="2.28553" fill="#FB8277"/>
<circle cx="32.2031" cy="15.2581" r="2.28553" fill="#FB8277"/>
<circle cx="32.2031" cy="67.1484" r="2.28553" fill="#FB8277"/>
<circle cx="71.1208" cy="15.2581" r="2.28553" fill="#FB8277"/>
<circle cx="71.1208" cy="67.1484" r="2.28553" fill="#FB8277"/>
<circle cx="32.2031" cy="28.2307" r="2.28553" fill="#FB8277"/>
<circle cx="32.2031" cy="80.121" r="2.28553" fill="#FB8277"/>
<circle cx="71.1208" cy="28.2307" r="2.28553" fill="#FB8277"/>
<circle cx="71.1208" cy="80.121" r="2.28553" fill="#FB8277"/>
<circle cx="32.2031" cy="41.2033" r="2.28553" fill="#FB8277"/>
<circle cx="32.2031" cy="93.0936" r="2.28553" fill="#FB8277"/>
<circle cx="71.1208" cy="41.2033" r="2.28553" fill="#FB8277"/>
<circle cx="71.1208" cy="93.0936" r="2.28553" fill="#FB8277"/>
<circle cx="45.1758" cy="2.28553" r="2.28553" fill="#FB8277"/>
<circle cx="45.1758" cy="54.1758" r="2.28553" fill="#FB8277"/>
<circle cx="84.0935" cy="2.28553" r="2.28553" fill="#FB8277"/>
<circle cx="84.0935" cy="54.1758" r="2.28553" fill="#FB8277"/>
<circle cx="45.1758" cy="15.2581" r="2.28553" fill="#FB8277"/>
<circle cx="45.1758" cy="67.1484" r="2.28553" fill="#FB8277"/>
<circle cx="84.0935" cy="15.2581" r="2.28553" fill="#FB8277"/>
<circle cx="84.0935" cy="67.1484" r="2.28553" fill="#FB8277"/>
<circle cx="45.1758" cy="28.2307" r="2.28553" fill="#FB8277"/>
<circle cx="45.1758" cy="80.121" r="2.28553" fill="#FB8277"/>
<circle cx="84.0935" cy="28.2307" r="2.28553" fill="#FB8277"/>
<circle cx="84.0935" cy="80.121" r="2.28553" fill="#FB8277"/>
<circle cx="45.1758" cy="41.2033" r="2.28553" fill="#FB8277"/>
<circle cx="45.1758" cy="93.0936" r="2.28553" fill="#FB8277"/>
<circle cx="84.0935" cy="41.2033" r="2.28553" fill="#FB8277"/>
<circle cx="84.0935" cy="93.0936" r="2.28553" fill="#FB8277"/>
<circle cx="58.1484" cy="2.28553" r="2.28553" fill="#FB8277"/>
<circle cx="58.1484" cy="54.1758" r="2.28553" fill="#FB8277"/>
<ellipse cx="96.8904" cy="2.28553" rx="2.10972" ry="2.28553" fill="#FB8277"/>
<ellipse cx="96.8904" cy="54.1758" rx="2.10972" ry="2.28553" fill="#FB8277"/>
<circle cx="58.1484" cy="15.2581" r="2.28553" fill="#FB8277"/>
<circle cx="58.1484" cy="67.1484" r="2.28553" fill="#FB8277"/>
<ellipse cx="96.8904" cy="15.2581" rx="2.10972" ry="2.28553" fill="#FB8277"/>
<ellipse cx="96.8904" cy="67.1484" rx="2.10972" ry="2.28553" fill="#FB8277"/>
<circle cx="58.1484" cy="28.2307" r="2.28553" fill="#FB8277"/>
<circle cx="58.1484" cy="80.121" r="2.28553" fill="#FB8277"/>
<ellipse cx="96.8904" cy="28.2307" rx="2.10972" ry="2.28553" fill="#FB8277"/>
<ellipse cx="96.8904" cy="80.121" rx="2.10972" ry="2.28553" fill="#FB8277"/>
<circle cx="58.1484" cy="41.2033" r="2.28553" fill="#FB8277"/>
<circle cx="58.1484" cy="93.0936" r="2.28553" fill="#FB8277"/>
<ellipse cx="96.8904" cy="41.2033" rx="2.10972" ry="2.28553" fill="#FB8277"/>
<ellipse cx="96.8904" cy="93.0936" rx="2.10972" ry="2.28553" fill="#FB8277"/>
</svg>
